<svg width="32" height="32" viewBox="0 0 32 32" fill="none" xmlns="http://www.w3.org/2000/svg">
  <!-- Background -->
  <rect width="32" height="32" rx="6" fill="#10B981"/>
  
  <!-- Hand-drawn vertical stroke -->
  <path 
    d="M9 5.5C9.2 6.8 9.1 8.2 8.9 9.6C8.8 11.5 8.7 13.5 8.8 15.5C8.9 18.2 9.2 21 9.6 23.7C9.7 24.5 9.9 25.5 10.2 26.2" 
    stroke="white" 
    strokeWidth="2.8" 
    strokeLinecap="round" 
    strokeLinejoin="round"
    opacity="0.95"
  />
  
  <!-- Abstract upper diagonal - flowing curve -->
  <path 
    d="M22 6.5C21.2 7.8 20 9.3 18.5 10.8C17.2 12.1 15.5 13.5 13.8 14.5C13 15 12.5 15.3 12 15.5" 
    stroke="white" 
    strokeWidth="2.8" 
    strokeLinecap="round" 
    strokeLinejoin="round"
    opacity="0.92"
  />
  
  <!-- Abstract lower diagonal - dynamic sweep -->
  <path 
    d="M12.5 16C13.5 16.8 15 18.2 16.5 19.8C18 21.5 19.5 23.5 20.8 25.2C21.3 25.9 21.8 26.5 22.2 27" 
    stroke="white" 
    strokeWidth="2.8" 
    strokeLinecap="round" 
    strokeLinejoin="round"
    opacity="0.92"
  />
  
  <!-- Artistic accent dots -->
  <circle cx="23" cy="7" r="1.2" fill="white" opacity="0.7" />
  <circle cx="11.5" cy="15.5" r="1.5" fill="white" opacity="0.6" />
  <circle cx="23" cy="26.5" r="1.2" fill="white" opacity="0.7" />
</svg>

